<svg t="1681390484923" class="icon" viewBox="0 0 1024 1024" version="1.1" xmlns="http://www.w3.org/2000/svg" p-id="4787" width="1024" height="1024"><path d="M433.118054 568.65824m22.834247 0l112.217506 0q22.834248 0 22.834247 22.834247l0 0.122109q0 22.834248-22.834247 22.834247l-112.217506 0q-22.834248 0-22.834247-22.834247l0-0.122109q0-22.834248 22.834247-22.834247Z" fill="#e6e6e6" p-id="4788"></path><path d="M512 48.84331A463.15669 463.15669 0 1 1 48.84331 512 464.011448 464.011448 0 0 1 512 48.84331m0-48.84331a512 512 0 1 0 512 512A512 512 0 0 0 512 0z" fill="#e6e6e6" p-id="4789"></path><path d="M310.277129 811.775817a24.421655 24.421655 0 0 1-24.421656-28.573337l36.632483-214.910565-155.565943-152.26902a24.421655 24.421655 0 0 1 13.554018-41.638922l215.765324-31.259718 96.465537-195.373241a24.421655 24.421655 0 0 1 43.836871 0l96.465538 195.373241 215.765323 31.381827a24.421655 24.421655 0 0 1 13.554019 41.638922L706.274267 568.291915l36.632482 214.910565A24.421655 24.421655 0 0 1 708.227999 808.967326l-193.541617-101.471977-193.053184 101.471977a24.421655 24.421655 0 0 1-11.356069 2.808491z m204.409253-156.298593a24.421655 24.421655 0 0 1 11.35607 2.80849l160.572382 84.376819-30.649177-178.766516a24.421655 24.421655 0 0 1 7.08228-21.613165L792.849034 415.168137l-179.499165-25.642738a24.421655 24.421655 0 0 1-18.43835-13.309802l-80.225137-162.770331-80.347245 162.770331a24.421655 24.421655 0 0 1-18.43835 13.309802L236.401622 415.168137 366.324827 542.282852a24.421655 24.421655 0 0 1 7.08228 21.613165l-30.649177 178.766516 160.572382-84.376819a24.421655 24.421655 0 0 1 11.35607-2.80849z" fill="#e6e6e6" p-id="4790"></path></svg>